<?xml version="1.0" encoding="utf-8"?>
<!-- Generator: Adobe Illustrator 23.0.3, SVG Export Plug-In . SVG Version: 6.00 Build 0)  -->
<svg version="1.1" id="Capa_1" xmlns="http://www.w3.org/2000/svg" xmlns:xlink="http://www.w3.org/1999/xlink" x="0px" y="0px"
	 viewBox="0 0 675 190" style="enable-background:new 0 0 675 190;" xml:space="preserve">
<style type="text/css">
	.st0{fill:#8FBE00;}
	.st1{fill:#505050;}
</style>
<g>
	<path class="st0" d="M428.13,152.16c-0.42,0.47-1.67,1.48-1.67,1.48c-5.29,4.09-15.78,5.18-22.45,5.26l-0.14-4.18
		c4.52-0.36,12.26-0.64,15.73-3.27c1.32-1.02,2.27-3.04,2.91-4.64c-3.43,0.96-6.74,1.47-10.57,1.41c-11.29,0-13.59-6.71-11.55-12.16
		c1.95-5.01,9.59-12.05,20.44-12.05c6.05,0,12.58,1.2,17.77,4.51l-6.63,16.94C431.16,147.51,430.39,149.6,428.13,152.16
		 M424.2,141.92l4.73-12.05c-2.17-0.89-4.19-1.4-7.09-1.4c-11.15,0-17.69,15.27-6.83,15.27C418.23,143.73,421.26,142.8,424.2,141.92
		"/>
	<path class="st0" d="M291.43,145.52c-3.06,1-5.36,1.63-8.12,2.04c-5.7,0.88-13.19,1.03-17.15-1.42c-3.65-2.21-4.88-5.97-3.28-9.85
		c2.35-5.77,8.9-12.16,20.63-12.16c10.77,0,14.02,4.2,10.89,12.67h-22.38c-1.89,4.44,1.01,7.13,6.5,7.03
		c4.23-0.07,7.83-1.02,11.84-2.02l1.6,3.54L291.43,145.52z M286.74,132.61c0.64-2.41-0.45-4.27-4.15-4.27c-3.98,0-6.7,1.9-8.39,4.27
		H286.74z"/>
	<path class="st0" d="M230.91,148.11c-11.32,0-13.39-6.97-11.32-12.27c2.14-5.42,9.97-12.05,21.11-12.05c3.4,0,6.41,0.44,9.17,1.15
		l4.61-11.85l9.72-1.77l-12.84,32.73c-6.53,2.49-13.14,4.12-20.45,4.12V148.11z M243.17,142.21l4.95-12.59
		c-2.15-0.87-4.19-1.39-7.1-1.35c-11.29,0-17.79,15.62-7.04,15.62C237.1,143.88,240.7,143.02,243.17,142.21"/>
	<path class="st0" d="M355,140.91c-2.24,5.29-11.54,7.45-18.59,7.45c-4.84,0-8.69-1.04-12.89-3.29l5.17-3.59
		c2.81,1.57,5.77,2.25,8.96,2.25c3.98,0,7.75-1.05,8.38-2.85c0.5-1.37-3.04-1.93-3.98-2.14c-1.03-0.24-2.1-0.54-3.09-0.84
		c-3.67-0.86-10.43-2.14-8.51-6.99c1.92-4.79,10.07-7.13,16.84-7.13c4.49,0,7.82,0.96,12.02,2.55l-5.18,3.71
		c-2.75-1.02-5.01-1.64-7.97-1.64c-3.33,0-6.37,1.01-6.95,2.48c-0.16,0.37-0.12,0.73,1.43,1.23c1.62,0.5,3.89,1.03,5.98,1.52
		c2.05,0.52,4.2,1.04,6.08,2.03C354.72,136.72,356.1,138.41,355,140.91"/>
	<path class="st0" d="M390.69,145.52c-3.08,1-5.38,1.63-8.1,2.04c-5.71,0.88-13.21,1.03-17.19-1.42c-3.62-2.21-4.88-5.97-3.24-9.85
		c2.33-5.77,8.87-12.16,20.63-12.16c10.79,0,13.97,4.2,10.86,12.67h-22.37c-1.88,4.44,1.02,7.13,6.5,7.03
		c4.21-0.07,7.85-1.02,11.82-2.02l1.63,3.54L390.69,145.52z M386.01,132.61c0.63-2.41-0.48-4.27-4.14-4.27
		c-3.99,0-6.71,1.9-8.41,4.27H386.01z"/>
	<path class="st0" d="M473.34,144.33c-6.51,2.39-13.26,3.84-20.75,3.84c-8.75,0-11.11-3.14-10.74-7.35l5.72-14.64l0.32-0.81
		l10.04-1.81l-6.42,16.41c-0.86,2.22,1.11,3.85,6.14,3.8c2.63-0.04,5.38-0.67,7.46-1.33l7.08-18.09h9.18l-7.79,19.88L473.34,144.33z
		"/>
	<path class="st0" d="M514,125.12c-1.65,1.33-3.26,2.59-4.81,3.94l-2.61-0.28c-0.58-0.04-1.08-0.07-1.48-0.04
		c-3.37,0-5.99,0.62-8.19,1.5l-6.88,17.51h-9.09l7.57-19.2c3.41-1.8,7.02-2.97,10.92-3.74c5.81-1.12,9.28-1.18,15.47-0.44
		L514,125.12z"/>
	<path class="st0" d="M522.11,117.53c0.96-1.78,3.88-2.99,6.73-2.99c2.9,0,5.52,1.43,4.5,3.73c-0.75,1.94-3.87,3.33-6.89,3.33
		c-2.59,0-5.58-1.16-4.46-4.07H522.11z M520.67,147.75h-9.19l8.77-22.54l9.96-1.76L520.67,147.75z"/>
	<path class="st0" d="M605.4,144.17c-4.8,2.24-11.38,4.02-18.82,3.99c-4-0.06-13.35-1.9-10.88-8.23c2.02-4.78,9.46-7.51,16.92-7.51
		h8.63l0.48-1.18c0.53-1.38-1.2-2.84-4.92-2.84c-4.09,0-7.29,0.79-11.19,1.79l-1.36-3.93c5.66-1.59,9.36-2.29,15.4-2.34
		c6.17,0,12.79,2.46,10.83,7.49l-4.89,12.65L605.4,144.17z M598.11,143.2l2.9-7.38l-7.88-0.06c-11.41,0-12.51,8.93-2.91,9.02
		C592.67,144.79,595.89,144.18,598.11,143.2"/>
	<path class="st0" d="M545.43,148.11c-11.3,0-13.41-6.97-11.32-12.27c2.13-5.42,9.97-12.05,21.11-12.05c3.43,0,6.41,0.44,9.17,1.15
		l4.65-11.85l9.69-1.77l-12.82,32.73c-6.56,2.49-13.13,4.12-20.45,4.12L545.43,148.11z M557.69,142.21l4.92-12.59
		c-2.13-0.87-4.18-1.39-7.08-1.35c-11.3,0-17.78,15.6-7.02,15.6C551.62,143.86,555.19,143.02,557.69,142.21"/>
	<path class="st0" d="M627.68,148.11c-11.28,0-13.38-6.97-11.28-12.27c2.11-5.42,9.97-12.05,21.11-12.05c3.4,0,6.39,0.44,9.17,1.15
		l4.64-11.85l9.7-1.77l-12.82,32.73c-6.56,2.49-13.18,4.12-20.46,4.12L627.68,148.11z M639.98,142.21l4.97-12.59
		c-2.16-0.88-4.19-1.4-7.11-1.36c-11.32,0-17.77,15.6-7.04,15.6C633.92,143.86,637.46,143.02,639.98,142.21"/>
	<path class="st1" d="M269.01,64.29c0.24,0,0.64,0.27,0.71,0.47l10.1,23.48l29.52-23.78c0.04-0.04,0.4-0.17,0.47-0.17h20.43
		c0.61,0,0.95,0.42,0.74,0.94l-13.76,34.35c-0.09,0.17-0.47,0.41-0.67,0.41h-4.58c-10.14,0-10.83-4.85-10.09-7.85
		c0.14-0.64,2.03-5.41,3.84-9.92l2.56-6.36l-29.48,23.97c-0.05,0.02-0.41,0.15-0.48,0.15h-12.77c-0.23,0-0.64-0.25-0.73-0.46
		l-10.54-24.85l-9.96,24.9c-0.09,0.17-0.47,0.41-0.67,0.41h-9.14c-0.6,0-0.95-0.41-0.72-0.92l14.05-34.36
		c0.06-0.18,0.46-0.42,0.65-0.42H269.01z"/>
	<path class="st1" d="M622.36,100c-6.44-0.29-10.45-3.07-8.66-8.53c0.26-0.73,10.45-26.76,10.45-26.76
		c0.07-0.16,0.47-0.42,0.67-0.42h16.94c0.63,0,0.96,0.42,0.74,0.94l-10.14,25.54c0,0-0.06,0.14-0.08,0.31
		c-0.18,1.42,1.38,1.69,2.71,1.72l32.95,0.02c1.33,0,0.99,0.32-1.64,6.77c-0.07,0.16-0.46,0.4-0.67,0.4H622.36z"/>
	<path class="st1" d="M608.66,99.1c0.23,0.5-0.04,0.9-0.66,0.9h-8.79c-7.51,0-10.71-3.19-11.93-5.09l-2.69-5.63h-28.56l-13.75,10.56
		c-0.04,0.04-0.39,0.15-0.45,0.15h-8.5c-0.88,0-1.19-0.68-0.55-1.18l44.22-34.35c0.02-0.04,0.41-0.17,0.41-0.17h14.31
		c0.23,0,0.63,0.26,0.71,0.45L608.66,99.1z M561.93,84.63h20.66l-5.32-11.06L561.93,84.63z"/>
	<path class="st1" d="M474.36,100c-6.42-0.29-10.45-3.07-8.65-8.53c0.24-0.73,10.46-26.76,10.46-26.76
		c0.06-0.16,0.45-0.42,0.66-0.42h16.95c0.62,0,0.94,0.42,0.74,0.94L489,78.98l-4.63,11.8c0,0-0.06,0.14-0.1,0.31
		c-0.17,1.42,1.39,1.69,2.72,1.72l31.85,0.02l11.49-28.12c0.06-0.16,0.46-0.42,0.66-0.42h9.02c0.63,0,0.96,0.42,0.73,0.94
		L526.7,99.6c-0.07,0.16-0.45,0.4-0.65,0.4H474.36z"/>
	<path class="st1" d="M337.67,100c-6.42-0.29-10.43-3.07-8.66-8.53c0.25-0.73,0.51-1.25,0.61-1.4l9.85-25.36
		c0.07-0.16,0.46-0.42,0.67-0.42h16.94c0.61,0,0.94,0.42,0.75,0.94l-5.52,13.74l-4.66,11.8c0,0-0.04,0.14-0.06,0.31
		c-0.17,1.42,1.37,1.69,2.69,1.72l31.86,0.02l11.48-28.12c0.06-0.16,0.46-0.42,0.66-0.42h9.01c0.63,0,0.95,0.42,0.72,0.94L390,99.6
		c-0.05,0.16-0.44,0.4-0.63,0.4H337.67z"/>
	<path class="st1" d="M464.31,64.29l6.86,0.01c1.78,0-0.09,2.87-0.1,2.91c-1.5,3.41-5.05,4.13-6.93,4.26h-6.42l-10.98-0.01h-2.14
		l-11.26,28.12c-0.07,0.17-0.46,0.41-0.65,0.41h-4.58c-10.24,0-10.83-4.97-10.06-7.95c0.15-0.55,2-5.26,3.83-9.84
		c1.82-4.53,3.59-8.95,3.59-8.95l0.71-1.78h-4.46h-13.45c-1.79,0,0.08-2.88,0.1-2.9c1.49-3.42,5.04-4.13,6.9-4.27L464.31,64.29z"/>
	<g>
		<path class="st0" d="M80.51,102.67l9.92-24.35l20.15-48.44c22.05-2.43,42.78,8.41,43.76,31.03c0.31,7.08-1.85,14.88-4.65,21.49
			l-26.81,63.22c-8.77-0.16-20.45-1.56-28.27-5.44c-10.06-4.94-16.35-15.84-16.42-26.11C78.15,110.06,78.99,106.41,80.51,102.67"/>
		<path class="st0" d="M150.43,102.67l22.82-54.99c22.06-2.43,42.81,8.42,43.77,31.03c0.32,7.08-1.86,14.87-4.66,21.5l-19.54,45.41
			c-8.77-0.16-20.4-1.56-28.26-5.44c-10.06-4.94-16.37-15.84-16.42-26.11C148.1,110.06,148.92,106.41,150.43,102.67"/>
		<path class="st0" d="M68.13,13.71c0.61,0.15,1.19,0.32,1.82,0.49c12.27,4.35,21.25,14.07,21.88,28.77
			c0.25,5.76-1.12,12.01-3.17,17.71l-25.35,60.99l-10,23.95c-11.04-0.2-20.46-2.01-28.35-5.44c-9.75-5.27-16.33-14.98-16.41-26.11
			c-0.02-4.03,0.8-7.88,2.33-11.4L29.5,57.62c2.08-5.62,3.07-11.1,3.05-16.4c-0.36-9.5-4.53-16.4-10.65-20.94
			c-0.83-0.5-1.47-1.26-1.7-2.19c-0.4-1.69,0.56-3.37,2.31-4.12c8.07-2.11,15.6-3.15,22.55-3.15C53.7,10.82,61.39,11.79,68.13,13.71
			"/>
	</g>
	<path class="st0" d="M506.2,173.8c0.68-1.57,2.1-3.11,5.61-3.22c3.2,0.09,3.63,1.66,2.99,3.24c-0.75,1.72-2.19,3.55-5.75,3.59
		C505.81,177.44,505.49,175.54,506.2,173.8 M461.87,173.62c0.68-1.58,2.09-3.11,5.6-3.22c3.21,0.1,3.64,1.67,3.01,3.24
		c-0.75,1.71-2.22,3.54-5.76,3.59C461.48,177.25,461.16,175.36,461.87,173.62 M423.99,184.12c0,0,2.49-6.5,7.42-18.77
		c2.09-5.22,5.26-6.02,9.01-6.05c14.18-0.08,201.47,0,201.47,0s-2.49,6.51-7.4,18.78c-2.11,5.22-5.28,6.03-9.05,6.04
		c-14.17,0.09-196.25,0-196.25,0H423.99z M518.93,177.59c1.54,0.74,3.43,1.17,5.52,1.17c3.28,0,7.43-0.91,8.33-2.97
		c0.41-0.91-0.15-1.51-0.98-1.92c-0.8-0.36-1.82-0.59-2.8-0.82c-0.99-0.2-2.02-0.42-2.78-0.63c-0.74-0.2-1.05-0.43-0.91-0.8
		c0.32-0.75,1.91-1.16,3.44-1.16c1.19,0,2.24,0.18,3.67,0.65l1.93-1.24c-1.7-0.58-3.23-0.9-5.06-0.9c-3.14,0-6.74,0.97-7.5,2.83
		c-0.7,1.66,1.55,2.15,3.79,2.61c0.48,0.13,0.99,0.24,1.46,0.35c0.98,0.21,2.33,0.43,2.05,1.16c-0.31,0.89-2.24,1.33-4.06,1.33
		c-1.47,0-2.97-0.28-4.15-0.88L518.93,177.59z M502.25,173.8c-0.97,2.48,0.6,4.93,6.16,4.95c5.57,0.02,9.24-2.47,10.26-4.95
		c1.03-2.44-1.06-4.65-6.23-4.68C507.27,169.12,503.27,171.37,502.25,173.8 M496.45,172.3l-2.53,6.22h3.72l2.82-6.88
		c0.65-1.6-1.91-2.57-4.63-2.57c-2.21,0-3.95,0.28-5.81,0.8c-0.91-0.54-2.37-0.82-3.9-0.82c-3.32,0.04-5.17,0.57-8.3,1.6l-3.27,7.87
		h3.7l3.09-7.51c0.55-0.2,1.66-0.52,2.49-0.53c2.64-0.09,3.47,0.58,2.96,1.82l-2.58,6.22h3.71l2.88-6.95
		c0.07-0.18,0.15-0.39,0.15-0.56C493.81,170.08,497.32,170.2,496.45,172.3 M457.92,173.62c-0.98,2.49,0.6,4.94,6.16,4.95
		c5.58,0.02,9.24-2.46,10.27-4.95c1.02-2.45-1.08-4.65-6.24-4.67C462.94,168.94,458.95,171.17,457.92,173.62 M441.4,177.49
		c1.53,0.73,3.44,1.16,5.53,1.16c3.26,0,7.41-0.9,8.32-2.96c0.4-0.91-0.15-1.51-0.99-1.9c-0.79-0.37-1.82-0.59-2.8-0.81
		c-0.99-0.21-2.02-0.44-2.76-0.63c-0.76-0.21-1.07-0.43-0.92-0.81c0.32-0.75,1.89-1.16,3.43-1.16c1.19,0,2.26,0.19,3.68,0.64
		l1.93-1.24c-1.71-0.58-3.24-0.9-5.05-0.9c-3.17,0-6.76,0.99-7.51,2.84c-0.71,1.66,1.54,2.14,3.79,2.6
		c0.48,0.13,0.99,0.25,1.47,0.36c0.97,0.19,2.33,0.43,2.04,1.16c-0.31,0.89-2.26,1.31-4.07,1.31c-1.46,0-2.95-0.28-4.14-0.88
		L441.4,177.49z M595.46,178.59h3.77l2.63-6.26c0.68-1.63-0.98-2.93-4.35-2.93c-2.08,0-4.1,0.3-5.95,0.81l2.56-5.96l-3.99,0.61
		l-5.79,13.73h3.73l2.88-6.82c1.58-0.51,3.24-0.95,4.85-0.95c1.96,0,2.48,0.96,2.08,1.94L595.46,178.59z M572.94,178.69
		c3.35,0,6.46-0.49,10.25-1.76l-1.01-1.18c-1.26,0.32-1.98,0.51-2.64,0.66c-1.93,0.49-3.29,0.73-5.35,0.73
		c-8.17,0-4.59-10.18,4.41-10.18c2.03-0.03,3.75,0.19,5.6,0.87l1.99-1.2c-2.05-0.86-4.51-1.15-7.43-1.21
		c-7.03-0.06-11.87,3.51-13.31,6.5C564.1,174.79,566.08,178.69,572.94,178.69 M612.03,178.69c3.33,0,6.43-0.49,10.24-1.76
		l-1.01-1.18c-1.26,0.32-1.97,0.51-2.64,0.66c-1.93,0.49-3.29,0.73-5.32,0.73c-8.22,0-4.62-10.18,4.39-10.18
		c2.03-0.03,3.73,0.19,5.57,0.87l1.99-1.2c-2.03-0.86-4.49-1.15-7.4-1.21c-7.06-0.06-11.91,3.51-13.31,6.5
		C603.2,174.79,605.13,178.69,612.03,178.69 M551.89,178.69c3.35,0,6.45-0.49,10.23-1.76l-0.98-1.18c-1.25,0.32-2,0.51-2.64,0.66
		c-1.94,0.49-3.29,0.73-5.35,0.73c-8.2,0-4.59-10.18,4.41-10.18c2.01-0.03,3.73,0.19,5.57,0.87l2-1.2c-2.06-0.86-4.5-1.15-7.44-1.21
		c-7.02-0.06-11.86,3.51-13.28,6.5C543.04,174.79,545.04,178.69,551.89,178.69"/>
</g>
</svg>
